<svg xmlns="http://www.w3.org/2000/svg" width="128" height="128" viewBox="0 0 128 128"><defs><linearGradient id="ivory" x2=".3" y2="1"><stop stop-color="#fff4d3"/><stop offset=".55" stop-color="#e5d8ac"/><stop offset="1" stop-color="#a99a71"/></linearGradient><linearGradient id="field" x2=".4" y2="1"><stop stop-color="#203e50"/><stop offset="1" stop-color="#0b172a"/></linearGradient><linearGradient id="rim" x2=".4" y2="1"><stop stop-color="#efffef"/><stop offset=".3" stop-color="rgb(50,255,255)"/><stop offset="1" stop-color="#304e68"/></linearGradient></defs><path d="M64 5L104 22L122 64L104 106L64 123L24 106L6 64L24 22Z" fill="url(#rim)" stroke="#07101c" stroke-width="3"/><path d="M64 12L99 28L115 64L99 101L64 116L29 101L13 64L29 28Z" fill="url(#field)" stroke="rgb(50,255,255)" stroke-width="1.5"/><g transform="translate(13 12) scale(.8)" stroke="#081a28" stroke-width="2.6" stroke-linejoin="round"><path d="M33 66Q29 25 63 25Q101 25 95 66Z" fill="url(#ivory)" /><path d="M44 67Q25 84 43 103 M58 69Q76 89 56 107 M78 68Q67 89 88 102" fill="none" stroke="#203543" stroke-width="3.5" stroke-linecap="round" stroke-linejoin="round"/><path d="M54 39H68L61 53H78L55 75L60 57H48Z" fill="#203543" /></g><path d="M60 112L64 106L68 112L64 118Z" fill="rgb(50,255,255)"/></svg>
