<svg xmlns="http://www.w3.org/2000/svg" width="128" height="128" viewBox="0 0 128 128"><defs><linearGradient id="ivory" x2=".3" y2="1"><stop stop-color="#fff4d3"/><stop offset=".55" stop-color="#e5d8ac"/><stop offset="1" stop-color="#a99a71"/></linearGradient><linearGradient id="field" x2=".4" y2="1"><stop stop-color="#203e50"/><stop offset="1" stop-color="#0b172a"/></linearGradient><linearGradient id="rim" x2=".4" y2="1"><stop stop-color="#efffef"/><stop offset=".3" stop-color="rgb(85,180,223)"/><stop offset="1" stop-color="#304e68"/></linearGradient></defs><path d="M64 5L104 22L122 64L104 106L64 123L24 106L6 64L24 22Z" fill="url(#rim)" stroke="#07101c" stroke-width="3"/><path d="M64 12L99 28L115 64L99 101L64 116L29 101L13 64L29 28Z" fill="url(#field)" stroke="rgb(85,180,223)" stroke-width="1.5"/><g transform="translate(13 12) scale(.8)" stroke="#081a28" stroke-width="2.6" stroke-linejoin="round"><path d="M62 22Q53 46 35 63Q16 96 58 106Q105 111 101 78Q100 57 79 40L82 60Q68 51 62 22Z" fill="url(#ivory)" /><circle cx="62" cy="79" r="15" fill="#a168a3"/><path d="M43 88Q60 104 82 87" fill="none" stroke="#203543" stroke-width="3.5" stroke-linecap="round" stroke-linejoin="round"/></g><path d="M60 112L64 106L68 112L64 118Z" fill="rgb(85,180,223)"/></svg>
